<svg xmlns="http://www.w3.org/2000/svg">
   <symbol id="users" viewBox="0 0 20 20">
      <g>
         <path d="M18.9061 16.0937H17.0311V14.2187C17.0311 14.1156 16.9467 14.0312 16.8436 14.0312H15.7186C15.6155 14.0312 15.5311 14.1156 15.5311 14.2187V16.0937H13.6561C13.553 16.0937 13.4686 16.1781 13.4686 16.2812V17.4062C13.4686 17.5093 13.553 17.5937 13.6561 17.5937H15.5311V19.4687C15.5311 19.5718 15.6155 19.6562 15.7186 19.6562H16.8436C16.9467 19.6562 17.0311 19.5718 17.0311 19.4687V17.5937H18.9061C19.0092 17.5937 19.0936 17.5093 19.0936 17.4062V16.2812C19.0936 16.1781 19.0092 16.0937 18.9061 16.0937ZM6.75376 9.68122C6.73266 9.47731 6.72094 9.27106 6.72094 9.06247C6.72094 8.68981 6.7561 8.32653 6.82173 7.97263C6.83813 7.88825 6.7936 7.80153 6.71626 7.76638C6.39751 7.62341 6.10454 7.42653 5.85141 7.1781C5.55315 6.88889 5.31844 6.54069 5.16227 6.15571C5.0061 5.77073 4.93189 5.35742 4.94438 4.94216C4.96548 4.18981 5.26782 3.47497 5.79516 2.93591C6.37407 2.34294 7.15219 2.0195 7.97954 2.02888C8.72719 2.03591 9.44907 2.32419 9.99516 2.83513C10.1803 3.00856 10.3397 3.20075 10.4733 3.407C10.5202 3.47966 10.6116 3.51013 10.6913 3.482C11.1038 3.33903 11.5397 3.23825 11.9874 3.19138C12.1186 3.17731 12.1936 3.03669 12.135 2.9195C11.3733 1.41247 9.81704 0.371845 8.01704 0.34372C5.42016 0.303876 3.25454 2.43435 3.25454 5.03122C3.25454 6.5031 3.93188 7.8156 4.9936 8.67575C4.24829 9.02028 3.56157 9.49606 2.96626 10.0914C1.68188 11.3734 0.95532 13.0656 0.908445 14.8726C0.907819 14.8976 0.912207 14.9225 0.921349 14.9458C0.930492 14.9691 0.944204 14.9903 0.961677 15.0082C0.979151 15.0262 1.00003 15.0404 1.02309 15.0501C1.04615 15.0598 1.07092 15.0648 1.09595 15.0648H2.41079C2.51157 15.0648 2.59594 14.9851 2.59829 14.8843C2.64282 13.525 3.1936 12.2523 4.16157 11.2867C4.85063 10.5976 5.69438 10.1195 6.61548 9.88747C6.70454 9.86169 6.76548 9.77497 6.75376 9.68122ZM17.3124 9.06247C17.3124 6.49841 15.2522 4.41481 12.6975 4.37497C10.1006 4.33513 7.93735 6.4656 7.93735 9.06247C7.93735 10.5343 8.61704 11.8468 9.67641 12.707C8.92338 13.0561 8.23787 13.5353 7.65141 14.1226C6.36704 15.4047 5.64048 17.0968 5.5936 18.9015C5.59298 18.9265 5.59736 18.9514 5.60651 18.9747C5.61565 18.998 5.62936 19.0192 5.64683 19.0372C5.66431 19.0551 5.68519 19.0693 5.70825 19.079C5.73131 19.0887 5.75608 19.0937 5.7811 19.0937H7.0936C7.19438 19.0937 7.27876 19.014 7.2811 18.9132C7.32563 17.5539 7.87641 16.2812 8.84438 15.3156C9.85454 14.3054 11.1952 13.75 12.6249 13.75C15.2124 13.75 17.3124 11.6523 17.3124 9.06247ZM14.7459 11.1836C14.1788 11.7508 13.4264 12.0625 12.6249 12.0625C11.8233 12.0625 11.0709 11.7508 10.5038 11.1836C10.2207 10.902 9.99709 10.5665 9.84612 10.1969C9.69514 9.82733 9.6199 9.4312 9.62485 9.032C9.63188 8.26325 9.93891 7.52028 10.4756 6.9695C11.0381 6.39294 11.7905 6.07185 12.5944 6.06247C13.3889 6.05544 14.16 6.36481 14.7272 6.92028C15.3084 7.48981 15.6272 8.25153 15.6272 9.06247C15.6249 9.86403 15.3131 10.6164 14.7459 11.1836Z"/>
      </g>
   </symbol>
   <symbol id="chat" viewBox="0 0 22 22">
      <g>
         <path d="M9.87519 11C9.87519 11.2984 9.99372 11.5845 10.2047 11.7955C10.4157 12.0065 10.7018 12.125 11.0002 12.125C11.2986 12.125 11.5847 12.0065 11.7957 11.7955C12.0067 11.5845 12.1252 11.2984 12.1252 11C12.1252 10.7016 12.0067 10.4155 11.7957 10.2045C11.5847 9.99353 11.2986 9.875 11.0002 9.875C10.7018 9.875 10.4157 9.99353 10.2047 10.2045C9.99372 10.4155 9.87519 10.7016 9.87519 11ZM14.5627 11C14.5627 11.2984 14.6812 11.5845 14.8922 11.7955C15.1032 12.0065 15.3893 12.125 15.6877 12.125C15.9861 12.125 16.2722 12.0065 16.4832 11.7955C16.6942 11.5845 16.8127 11.2984 16.8127 11C16.8127 10.7016 16.6942 10.4155 16.4832 10.2045C16.2722 9.99353 15.9861 9.875 15.6877 9.875C15.3893 9.875 15.1032 9.99353 14.8922 10.2045C14.6812 10.4155 14.5627 10.7016 14.5627 11ZM5.18769 11C5.18769 11.2984 5.30622 11.5845 5.5172 11.7955C5.72818 12.0065 6.01433 12.125 6.31269 12.125C6.61106 12.125 6.89721 12.0065 7.10819 11.7955C7.31917 11.5845 7.43769 11.2984 7.43769 11C7.43769 10.7016 7.31917 10.4155 7.10819 10.2045C6.89721 9.99353 6.61106 9.875 6.31269 9.875C6.01433 9.875 5.72818 9.99353 5.5172 10.2045C5.30622 10.4155 5.18769 10.7016 5.18769 11ZM20.6846 6.93125C20.1549 5.67266 19.3955 4.54297 18.4275 3.57266C17.4663 2.60796 16.3253 1.84114 15.0689 1.31563C13.7799 0.774219 12.4111 0.5 11.0002 0.5H10.9533C9.53301 0.507031 8.15723 0.788281 6.86348 1.34141C5.61791 1.87232 4.48753 2.64049 3.53535 3.60312C2.57676 4.57109 1.82441 5.69609 1.3041 6.95C0.765038 8.24844 0.493163 9.62891 0.500194 11.0492C0.508147 12.6769 0.893222 14.2806 1.62519 15.7344V19.2969C1.62519 19.5828 1.73878 19.857 1.94097 20.0592C2.14316 20.2614 2.41738 20.375 2.70332 20.375H6.26816C7.72198 21.107 9.32565 21.492 10.9533 21.5H11.0025C12.4064 21.5 13.7682 21.2281 15.0502 20.6961C16.3002 20.1768 17.437 19.419 18.3971 18.4648C19.365 17.5063 20.1268 16.3859 20.6588 15.1367C21.2119 13.843 21.4932 12.4672 21.5002 11.0469C21.5072 9.61953 21.2307 8.23438 20.6846 6.93125ZM17.1432 17.1969C15.5002 18.8234 13.3205 19.7188 11.0002 19.7188H10.9604C9.54707 19.7117 8.14316 19.3602 6.90332 18.6992L6.70644 18.5938H3.40644V15.2938L3.30098 15.0969C2.64004 13.857 2.28848 12.4531 2.28144 11.0398C2.27207 8.70312 3.16504 6.50937 4.80332 4.85703C6.43926 3.20469 8.62598 2.29062 10.9627 2.28125H11.0025C12.1744 2.28125 13.3111 2.50859 14.3822 2.95859C15.4275 3.39687 16.365 4.02734 17.1713 4.83359C17.9752 5.6375 18.608 6.57734 19.0463 7.62266C19.501 8.70547 19.7283 9.85391 19.7236 11.0398C19.7096 13.3742 18.7932 15.5609 17.1432 17.1969Z"/>
      </g>
   </symbol>
   <symbol id="bell" viewBox="0 0 16 22">
      <g>
         <path d="M15.125 17H14.5625V9.03125C14.5625 5.72422 12.118 2.99141 8.9375 2.53672V1.625C8.9375 1.10703 8.51797 0.6875 8 0.6875C7.48203 0.6875 7.0625 1.10703 7.0625 1.625V2.53672C3.88203 2.99141 1.4375 5.72422 1.4375 9.03125V17H0.875C0.460156 17 0.125 17.3352 0.125 17.75V18.5C0.125 18.6031 0.209375 18.6875 0.3125 18.6875H5.375C5.375 20.1359 6.55156 21.3125 8 21.3125C9.44844 21.3125 10.625 20.1359 10.625 18.6875H15.6875C15.7906 18.6875 15.875 18.6031 15.875 18.5V17.75C15.875 17.3352 15.5398 17 15.125 17ZM8 19.8125C7.37891 19.8125 6.875 19.3086 6.875 18.6875H9.125C9.125 19.3086 8.62109 19.8125 8 19.8125ZM3.125 17V9.03125C3.125 7.72813 3.63125 6.50469 4.55234 5.58359C5.47344 4.6625 6.69688 4.15625 8 4.15625C9.30313 4.15625 10.5266 4.6625 11.4477 5.58359C12.3687 6.50469 12.875 7.72813 12.875 9.03125V17H3.125Z"/>
      </g>
   </symbol>
   <symbol id="info" viewBox="0 0 22 22">
      <g>
         <path d="M11 0.5C5.20156 0.5 0.5 5.20156 0.5 11C0.5 16.7984 5.20156 21.5 11 21.5C16.7984 21.5 21.5 16.7984 21.5 11C21.5 5.20156 16.7984 0.5 11 0.5ZM11 19.7188C6.18594 19.7188 2.28125 15.8141 2.28125 11C2.28125 6.18594 6.18594 2.28125 11 2.28125C15.8141 2.28125 19.7188 6.18594 19.7188 11C19.7188 15.8141 15.8141 19.7188 11 19.7188Z"/>
         <path d="M9.875 6.875C9.875 7.17337 9.99353 7.45952 10.2045 7.6705C10.4155 7.88147 10.7016 8 11 8C11.2984 8 11.5845 7.88147 11.7955 7.6705C12.0065 7.45952 12.125 7.17337 12.125 6.875C12.125 6.57663 12.0065 6.29048 11.7955 6.0795C11.5845 5.86853 11.2984 5.75 11 5.75C10.7016 5.75 10.4155 5.86853 10.2045 6.0795C9.99353 6.29048 9.875 6.57663 9.875 6.875ZM11.5625 9.5H10.4375C10.3344 9.5 10.25 9.58437 10.25 9.6875V16.0625C10.25 16.1656 10.3344 16.25 10.4375 16.25H11.5625C11.6656 16.25 11.75 16.1656 11.75 16.0625V9.6875C11.75 9.58437 11.6656 9.5 11.5625 9.5Z"/>
      </g>
   </symbol>
   <symbol id="setting" viewBox="0 0 14 14">
      <g>
         <path d="M13.4148 8.55473L12.5209 7.7891C12.5632 7.52934 12.585 7.2641 12.585 6.99887C12.585 6.73363 12.5632 6.4684 12.5209 6.20863L13.4148 5.44301C13.4823 5.38519 13.5305 5.30817 13.5532 5.22221C13.5759 5.13624 13.5719 5.0454 13.5418 4.96176L13.5295 4.92621C13.2834 4.23719 12.9148 3.59845 12.4417 3.04086L12.4171 3.01215C12.3597 2.94454 12.2832 2.89595 12.1977 2.87276C12.1122 2.84958 12.0217 2.85289 11.9381 2.88227L10.8284 3.27738C10.419 2.94106 9.96173 2.67582 9.46765 2.48988L9.25337 1.32777C9.2372 1.24033 9.19486 1.15989 9.13196 1.09713C9.06906 1.03437 8.98859 0.992262 8.90124 0.976407L8.86439 0.969571C8.15329 0.841055 7.40535 0.841055 6.69425 0.969571L6.6574 0.976407C6.57005 0.992262 6.48958 1.03437 6.42668 1.09713C6.36378 1.15989 6.32144 1.24033 6.30527 1.32777L6.08962 2.49535C5.59948 2.68133 5.14304 2.94642 4.73841 3.28012L3.62058 2.88227C3.53701 2.85266 3.44642 2.84922 3.36084 2.87242C3.27527 2.89562 3.19878 2.94436 3.14152 3.01215L3.11695 3.04086C2.64436 3.59884 2.27589 4.23747 2.02916 4.92621L2.01687 4.96176C1.95545 5.13266 2.00595 5.32406 2.1438 5.44301L3.04871 6.21684C3.0064 6.47387 2.98592 6.73637 2.98592 6.9975C2.98592 7.26 3.0064 7.5225 3.04871 7.77817L2.1438 8.55199C2.07637 8.60982 2.02811 8.68683 2.00544 8.7728C1.98277 8.85876 1.98675 8.9496 2.01687 9.03324L2.02916 9.06879C2.2762 9.75785 2.64198 10.3936 3.11695 10.9541L3.14152 10.9829C3.19892 11.0505 3.27542 11.0991 3.36094 11.1222C3.44646 11.1454 3.53698 11.1421 3.62058 11.1127L4.73841 10.7149C5.14514 11.0498 5.59963 11.3151 6.08962 11.4996L6.30527 12.6672C6.32144 12.7547 6.36378 12.8351 6.42668 12.8979C6.48958 12.9606 6.57005 13.0027 6.6574 13.0186L6.69425 13.0254C7.41188 13.1546 8.14676 13.1546 8.86439 13.0254L8.90124 13.0186C8.98859 13.0027 9.06906 12.9606 9.13196 12.8979C9.19486 12.8351 9.2372 12.7547 9.25337 12.6672L9.46765 11.5051C9.96153 11.3197 10.4213 11.0536 10.8284 10.7176L11.9381 11.1127C12.0216 11.1423 12.1122 11.1458 12.1978 11.1226C12.2834 11.0994 12.3599 11.0506 12.4171 10.9829L12.4417 10.9541C12.9167 10.3922 13.2824 9.75785 13.5295 9.06879L13.5418 9.03324C13.6032 8.86508 13.5527 8.67367 13.4148 8.55473V8.55473ZM11.5518 6.36996C11.5859 6.57641 11.6037 6.78832 11.6037 7.00024C11.6037 7.21215 11.5859 7.42406 11.5518 7.63051L11.4617 8.17875L12.4813 9.05238C12.3267 9.40907 12.1316 9.74672 11.8998 10.0586L10.6332 9.60883L10.2047 9.96156C9.87848 10.2295 9.51542 10.4401 9.12234 10.5877L8.60233 10.7832L8.35802 12.1094C7.97254 12.1532 7.58337 12.1532 7.19789 12.1094L6.95358 10.7805L6.43766 10.5823C6.04867 10.4346 5.68699 10.2241 5.36351 9.95746L4.93495 9.60336L3.66017 10.0573C3.42814 9.74418 3.23433 9.40649 3.07873 9.05102L4.10921 8.16918L4.02049 7.62231C3.98773 7.41859 3.96999 7.20805 3.96999 7.00024C3.96999 6.79106 3.98637 6.58188 4.02049 6.37816L4.10921 5.83129L3.07873 4.94945C3.23296 4.59262 3.42814 4.25629 3.66017 3.9432L4.93495 4.39711L5.36351 4.04301C5.68699 3.77641 6.04867 3.56586 6.43766 3.4182L6.95494 3.2227L7.19925 1.89379C7.58278 1.85004 7.9745 1.85004 8.35939 1.89379L8.6037 3.21996L9.12371 3.41547C9.51542 3.56313 9.87984 3.77367 10.206 4.04164L10.6346 4.39438L11.9012 3.94457C12.1332 4.25766 12.327 4.59535 12.4826 4.95082L11.4631 5.82445L11.5518 6.36996ZM7.78068 4.45727C6.45404 4.45727 5.37853 5.53461 5.37853 6.86352C5.37853 8.19242 6.45404 9.26977 7.78068 9.26977C9.10733 9.26977 10.1828 8.19242 10.1828 6.86352C10.1828 5.53461 9.10733 4.45727 7.78068 4.45727ZM8.86166 7.94633C8.71988 8.08876 8.55138 8.2017 8.36587 8.27866C8.18035 8.35562 7.98148 8.39508 7.78068 8.39477C7.37259 8.39477 6.98906 8.23481 6.69971 7.94633C6.55753 7.80431 6.44478 7.63553 6.36795 7.4497C6.29112 7.26387 6.25173 7.06465 6.25204 6.86352C6.25204 6.45473 6.41173 6.07055 6.69971 5.7807C6.98906 5.49086 7.37259 5.33227 7.78068 5.33227C8.18878 5.33227 8.5723 5.49086 8.86166 5.7807C9.00384 5.92272 9.11659 6.09151 9.19342 6.27734C9.27025 6.46317 9.30964 6.66238 9.30933 6.86352C9.30933 7.27231 9.14964 7.65649 8.86166 7.94633Z" fill="#8C8C8C"/>
      </g>
   </symbol>
   <symbol id="like-active" viewBox="0 0 16 16">
      <g>
         <path d="M5.23114 7.74846V14.436L5.23582 7.74846H5.23114ZM13.6262 6.36877H8.72207L8.87181 3.26877C8.88117 3.08283 8.7985 2.90783 8.64408 2.79221C8.54893 2.72189 8.43194 2.68596 8.31495 2.68752C8.00922 2.68908 7.73937 2.89689 7.6567 3.19221C7.07799 5.29221 6.64436 6.86721 6.35423 7.91877V13.3125H12.5842C12.7402 13.2425 12.8726 13.1289 12.9655 12.9853C13.0585 12.8417 13.1081 12.6743 13.1083 12.5031C13.1083 12.3516 13.0725 12.2078 13.0007 12.0766L12.7839 11.6797L13.1255 11.3828C13.2217 11.2994 13.2987 11.1962 13.3515 11.0803C13.4042 10.9643 13.4314 10.8384 13.4312 10.711C13.4312 10.5594 13.3954 10.4156 13.3236 10.2844L13.1068 9.88752L13.4484 9.59064C13.5445 9.50722 13.6216 9.40403 13.6744 9.28809C13.7271 9.17215 13.7543 9.04618 13.7541 8.91877C13.7541 8.76721 13.7182 8.62346 13.6465 8.49221L13.4281 8.09377L13.7697 7.79689C13.8659 7.71348 13.9429 7.61028 13.9957 7.49434C14.0485 7.3784 14.0757 7.25243 14.0754 7.12502C14.0754 6.82658 13.9039 6.53908 13.6262 6.36877V6.36877Z" fill="#E6F7FF"/>
         <path d="M2.71979 8.25005V13.9375C2.71979 14.2141 2.94285 14.4375 3.21894 14.4375H4.23284V7.75005H3.21894C2.94285 7.75005 2.71979 7.97349 2.71979 8.25005ZM14.7914 8.33911C15.0535 7.99224 15.1985 7.56724 15.1985 7.12505C15.1985 6.42349 14.807 5.75786 14.1768 5.39067C14.0146 5.29535 13.8299 5.24519 13.6418 5.24536H9.89974L9.99333 3.32505C10.0167 2.86099 9.85295 2.42036 9.53318 2.08442C9.37714 1.91868 9.18877 1.78683 8.97974 1.69705C8.77071 1.60728 8.54549 1.5615 8.31806 1.56255C7.50694 1.56255 6.78942 2.10942 6.57416 2.89224L5.23581 7.74849L5.23113 14.436H12.5952C12.7402 14.436 12.879 14.4079 13.0085 14.3516C13.751 14.0344 14.2299 13.3079 14.2299 12.5016C14.2299 12.3047 14.2018 12.111 14.1456 11.9235C14.4077 11.5766 14.5528 11.1516 14.5528 10.7094C14.5528 10.5125 14.5247 10.3188 14.4685 10.1313C14.7306 9.78442 14.8756 9.35942 14.8756 8.91724C14.8756 8.72036 14.8476 8.52661 14.7914 8.33911ZM13.7697 7.79692L13.4281 8.0938L13.6465 8.49224C13.7179 8.62297 13.755 8.76976 13.7541 8.9188C13.7541 9.17661 13.6434 9.42192 13.4484 9.59067L13.1068 9.88755L13.3236 10.2844C13.395 10.4152 13.4321 10.562 13.4312 10.711C13.4312 10.9688 13.3205 11.2141 13.1255 11.3829L12.7839 11.6797L13.0007 12.0766C13.0721 12.2073 13.1092 12.3541 13.1083 12.5032C13.1083 12.8532 12.9024 13.1688 12.5842 13.3125H6.35422V7.9188C6.64435 6.8688 7.07799 5.2938 7.65669 3.19224C7.69712 3.04809 7.78314 2.92098 7.90183 2.82998C8.02052 2.73898 8.16548 2.689 8.31494 2.68755C8.43193 2.68599 8.54892 2.72192 8.64407 2.79224C8.79849 2.90786 8.88117 3.08286 8.87181 3.2688L8.72206 6.3688H13.6262C13.9039 6.53911 14.0754 6.82661 14.0754 7.12505C14.0754 7.38286 13.9647 7.62817 13.7697 7.79692Z" fill="#1890FF"/>  
      </g>
   </symbol>
   <symbol id="like" viewBox="0 0 24 24">
      <g>
         <path d="M21.6191 12.5094C22.0122 11.9891 22.2298 11.3516 22.2298 10.6883C22.2298 9.63596 21.6425 8.63987 20.6973 8.0844C20.4539 7.94142 20.1768 7.86617 19.8947 7.86643H14.284L14.4243 4.98596C14.4571 4.28987 14.2114 3.62893 13.7341 3.12502C13.4999 2.87665 13.2173 2.67904 12.9038 2.5444C12.5903 2.40975 12.2525 2.34094 11.9114 2.34221C10.6948 2.34221 9.61847 3.16252 9.29559 4.33674L7.28573 11.6258H4.26041C3.84627 11.6258 3.51169 11.961 3.51169 12.3758V20.9071C3.51169 21.3219 3.84627 21.6571 4.26041 21.6571H18.3294C18.5447 21.6571 18.7553 21.6149 18.9495 21.5305C20.0632 21.0547 20.7815 19.9649 20.7815 18.7555C20.7815 18.4602 20.7394 18.1696 20.6551 17.8883C21.0482 17.368 21.2658 16.7305 21.2658 16.0672C21.2658 15.7719 21.2237 15.4813 21.1395 15.2C21.5326 14.6797 21.7501 14.0422 21.7501 13.3789C21.7455 13.0836 21.7034 12.7906 21.6191 12.5094V12.5094ZM5.19632 19.9696V13.3133H7.09153V19.9696H5.19632ZM20.0866 11.6961L19.5742 12.1414L19.8994 12.7367C20.0065 12.9328 20.0621 13.153 20.0608 13.3766C20.0608 13.7633 19.8924 14.1313 19.6022 14.3844L19.0898 14.8297L19.4151 15.425C19.5222 15.6211 19.5778 15.8413 19.5765 16.0649C19.5765 16.4516 19.408 16.8196 19.1179 17.0727L18.6055 17.518L18.9307 18.1133C19.0379 18.3094 19.0934 18.5296 19.0922 18.7531C19.0922 19.2781 18.7833 19.7516 18.306 19.9672H8.58898V13.2383L10.917 4.78909C10.9771 4.57252 11.1059 4.38147 11.2841 4.24486C11.4623 4.10825 11.6801 4.03354 11.9044 4.03205C12.0822 4.03205 12.2577 4.08362 12.3981 4.18909C12.6297 4.36252 12.7538 4.62502 12.7397 4.90393L12.5151 9.55393H19.8713C20.2878 9.8094 20.5452 10.2406 20.5452 10.6883C20.5452 11.075 20.3767 11.4406 20.0866 11.6961Z"/>
      </g>
   </symbol>  
   <symbol id="share" viewBox="0 0 24 24">
      <g>
         <path d="M17.8212 15.5625C17.1544 15.5625 16.539 15.7969 16.057 16.1883L11.209 12.675C11.2902 12.2287 11.2902 11.7713 11.209 11.325L16.057 7.81172C16.539 8.20312 17.1544 8.4375 17.8212 8.4375C19.3701 8.4375 20.6289 7.17656 20.6289 5.625C20.6289 4.07344 19.3701 2.8125 17.8212 2.8125C16.2723 2.8125 15.0135 4.07344 15.0135 5.625C15.0135 5.89688 15.0509 6.15703 15.1235 6.40547L10.5188 9.74531C9.83561 8.83828 8.74996 8.25 7.52626 8.25C5.45791 8.25 3.78264 9.92812 3.78264 12C3.78264 14.0719 5.45791 15.75 7.52626 15.75C8.74996 15.75 9.83561 15.1617 10.5188 14.2547L15.1235 17.5945C15.0509 17.843 15.0135 18.1055 15.0135 18.375C15.0135 19.9266 16.2723 21.1875 17.8212 21.1875C19.3701 21.1875 20.6289 19.9266 20.6289 18.375C20.6289 16.8234 19.3701 15.5625 17.8212 15.5625ZM17.8212 4.40625C18.4927 4.40625 19.0379 4.95234 19.0379 5.625C19.0379 6.29766 18.4927 6.84375 17.8212 6.84375C17.1497 6.84375 16.6045 6.29766 16.6045 5.625C16.6045 4.95234 17.1497 4.40625 17.8212 4.40625ZM7.52626 14.0625C6.39148 14.0625 5.46727 13.1367 5.46727 12C5.46727 10.8633 6.39148 9.9375 7.52626 9.9375C8.66105 9.9375 9.58525 10.8633 9.58525 12C9.58525 13.1367 8.66105 14.0625 7.52626 14.0625ZM17.8212 19.5938C17.1497 19.5938 16.6045 19.0477 16.6045 18.375C16.6045 17.7023 17.1497 17.1562 17.8212 17.1562C18.4927 17.1562 19.0379 17.7023 19.0379 18.375C19.0379 19.0477 18.4927 19.5938 17.8212 19.5938Z"/>
      </g>
   </symbol>
   <symbol id="dots" viewBox="0 0 24 24">
      <g>
         <path d="M4.18604 11.9766C4.18604 12.1489 4.21993 12.3196 4.28577 12.4788C4.35162 12.6381 4.44813 12.7828 4.5698 12.9046C4.69147 13.0265 4.83592 13.1232 4.99489 13.1892C5.15385 13.2551 5.32424 13.2891 5.4963 13.2891C5.66837 13.2891 5.83875 13.2551 5.99772 13.1892C6.15669 13.1232 6.30113 13.0265 6.4228 12.9046C6.54447 12.7828 6.64099 12.6381 6.70683 12.4788C6.77268 12.3196 6.80657 12.1489 6.80657 11.9766C6.80657 11.8042 6.77268 11.6335 6.70683 11.4743C6.64099 11.3151 6.54447 11.1704 6.4228 11.0485C6.30113 10.9266 6.15669 10.8299 5.99772 10.764C5.83875 10.698 5.66837 10.6641 5.4963 10.6641C5.32424 10.6641 5.15385 10.698 4.99489 10.764C4.83592 10.8299 4.69147 10.9266 4.5698 11.0485C4.44813 11.1704 4.35162 11.3151 4.28577 11.4743C4.21993 11.6335 4.18604 11.8042 4.18604 11.9766V11.9766ZM10.7374 11.9766C10.7374 12.3247 10.8754 12.6585 11.1211 12.9046C11.3669 13.1508 11.7001 13.2891 12.0476 13.2891C12.3951 13.2891 12.7284 13.1508 12.9741 12.9046C13.2199 12.6585 13.3579 12.3247 13.3579 11.9766C13.3579 11.6285 13.2199 11.2946 12.9741 11.0485C12.7284 10.8023 12.3951 10.6641 12.0476 10.6641C11.7001 10.6641 11.3669 10.8023 11.1211 11.0485C10.8754 11.2946 10.7374 11.6285 10.7374 11.9766V11.9766ZM17.2887 11.9766C17.2887 12.3247 17.4268 12.6585 17.6725 12.9046C17.9182 13.1508 18.2515 13.2891 18.599 13.2891C18.9465 13.2891 19.2798 13.1508 19.5255 12.9046C19.7712 12.6585 19.9092 12.3247 19.9092 11.9766C19.9092 11.6285 19.7712 11.2946 19.5255 11.0485C19.2798 10.8023 18.9465 10.6641 18.599 10.6641C18.2515 10.6641 17.9182 10.8023 17.6725 11.0485C17.4268 11.2946 17.2887 11.6285 17.2887 11.9766V11.9766Z" fill="#595959"/>
      </g>
   </symbol>
   <symbol id="clock-circle" viewBox="0 0 16 16">
      <g>
         <path d="M8 1C4.13438 1 1 4.13438 1 8C1 11.8656 4.13438 15 8 15C11.8656 15 15 11.8656 15 8C15 4.13438 11.8656 1 8 1ZM8 13.8125C4.79063 13.8125 2.1875 11.2094 2.1875 8C2.1875 4.79063 4.79063 2.1875 8 2.1875C11.2094 2.1875 13.8125 4.79063 13.8125 8C13.8125 11.2094 11.2094 13.8125 8 13.8125Z"/>
         <path d="M10.7297 9.97811L8.50156 8.36718V4.5C8.50156 4.43125 8.44531 4.375 8.37656 4.375H7.625C7.55625 4.375 7.5 4.43125 7.5 4.5V8.80311C7.5 8.84374 7.51875 8.88124 7.55156 8.90467L10.1359 10.789C10.1922 10.8297 10.2703 10.8172 10.3109 10.7625L10.7578 10.1531C10.7984 10.0953 10.7859 10.0172 10.7297 9.97811Z"/>
      </g>
   </symbol>
</svg>


