<svg xmlns="http://www.w3.org/2000/svg">
   <symbol id="news" viewBox="0 0 24 24">
      <g>
         <path d="M20.625 2.625H3.375C2.96016 2.625 2.625 2.96016 2.625 3.375V20.625C2.625 21.0398 2.96016 21.375 3.375 21.375H20.625C21.0398 21.375 21.375 21.0398 21.375 20.625V3.375C21.375 2.96016 21.0398 2.625 20.625 2.625ZM19.6875 19.6875H4.3125V4.3125H19.6875V19.6875Z" fill="#1890FF"/>
         <path d="M4.3125 19.6875H19.6875V4.3125H4.3125V19.6875ZM11.3438 8.0625C11.3438 7.95937 11.4281 7.875 11.5312 7.875H15.8438C15.9469 7.875 16.0312 7.95937 16.0312 8.0625V9.1875C16.0312 9.29063 15.9469 9.375 15.8438 9.375H11.5312C11.4281 9.375 11.3438 9.29063 11.3438 9.1875V8.0625ZM11.3438 11.4375C11.3438 11.3344 11.4281 11.25 11.5312 11.25H15.8438C15.9469 11.25 16.0312 11.3344 16.0312 11.4375V12.5625C16.0312 12.6656 15.9469 12.75 15.8438 12.75H11.5312C11.4281 12.75 11.3438 12.6656 11.3438 12.5625V11.4375ZM11.3438 14.8125C11.3438 14.7094 11.4281 14.625 11.5312 14.625H15.8438C15.9469 14.625 16.0312 14.7094 16.0312 14.8125V15.9375C16.0312 16.0406 15.9469 16.125 15.8438 16.125H11.5312C11.4281 16.125 11.3438 16.0406 11.3438 15.9375V14.8125ZM8.90625 7.6875C9.42422 7.6875 9.84375 8.10703 9.84375 8.625C9.84375 9.14297 9.42422 9.5625 8.90625 9.5625C8.38828 9.5625 7.96875 9.14297 7.96875 8.625C7.96875 8.10703 8.38828 7.6875 8.90625 7.6875ZM8.90625 11.0625C9.42422 11.0625 9.84375 11.482 9.84375 12C9.84375 12.518 9.42422 12.9375 8.90625 12.9375C8.38828 12.9375 7.96875 12.518 7.96875 12C7.96875 11.482 8.38828 11.0625 8.90625 11.0625ZM8.90625 14.4375C9.42422 14.4375 9.84375 14.857 9.84375 15.375C9.84375 15.893 9.42422 16.3125 8.90625 16.3125C8.38828 16.3125 7.96875 15.893 7.96875 15.375C7.96875 14.857 8.38828 14.4375 8.90625 14.4375Z" fill="#E6F7FF"/>
         <path d="M7.96875 15.375C7.96875 15.6236 8.06752 15.8621 8.24334 16.0379C8.41915 16.2137 8.65761 16.3125 8.90625 16.3125C9.15489 16.3125 9.39335 16.2137 9.56916 16.0379C9.74498 15.8621 9.84375 15.6236 9.84375 15.375C9.84375 15.1264 9.74498 14.8879 9.56916 14.7121C9.39335 14.5363 9.15489 14.4375 8.90625 14.4375C8.65761 14.4375 8.41915 14.5363 8.24334 14.7121C8.06752 14.8879 7.96875 15.1264 7.96875 15.375ZM7.96875 12C7.96875 12.2486 8.06752 12.4871 8.24334 12.6629C8.41915 12.8387 8.65761 12.9375 8.90625 12.9375C9.15489 12.9375 9.39335 12.8387 9.56916 12.6629C9.74498 12.4871 9.84375 12.2486 9.84375 12C9.84375 11.7514 9.74498 11.5129 9.56916 11.3371C9.39335 11.1613 9.15489 11.0625 8.90625 11.0625C8.65761 11.0625 8.41915 11.1613 8.24334 11.3371C8.06752 11.5129 7.96875 11.7514 7.96875 12ZM7.96875 8.625C7.96875 8.87364 8.06752 9.1121 8.24334 9.28791C8.41915 9.46373 8.65761 9.5625 8.90625 9.5625C9.15489 9.5625 9.39335 9.46373 9.56916 9.28791C9.74498 9.1121 9.84375 8.87364 9.84375 8.625C9.84375 8.37636 9.74498 8.1379 9.56916 7.96209C9.39335 7.78627 9.15489 7.6875 8.90625 7.6875C8.65761 7.6875 8.41915 7.78627 8.24334 7.96209C8.06752 8.1379 7.96875 8.37636 7.96875 8.625ZM11.5312 16.125H15.8438C15.9469 16.125 16.0312 16.0406 16.0312 15.9375V14.8125C16.0312 14.7094 15.9469 14.625 15.8438 14.625H11.5312C11.4281 14.625 11.3438 14.7094 11.3438 14.8125V15.9375C11.3438 16.0406 11.4281 16.125 11.5312 16.125ZM11.5312 12.75H15.8438C15.9469 12.75 16.0312 12.6656 16.0312 12.5625V11.4375C16.0312 11.3344 15.9469 11.25 15.8438 11.25H11.5312C11.4281 11.25 11.3438 11.3344 11.3438 11.4375V12.5625C11.3438 12.6656 11.4281 12.75 11.5312 12.75ZM11.5312 9.375H15.8438C15.9469 9.375 16.0312 9.29062 16.0312 9.1875V8.0625C16.0312 7.95937 15.9469 7.875 15.8438 7.875H11.5312C11.4281 7.875 11.3438 7.95937 11.3438 8.0625V9.1875C11.3438 9.29062 11.4281 9.375 11.5312 9.375Z" fill="#1890FF"/>
      </g>
   </symbol>
   <symbol id="messages" viewBox="0 0 24 24">
      <g>
         <path d="M18.1719 5.83371C17.3735 5.03264 16.426 4.39565 15.3828 3.95871C14.3129 3.50917 13.1637 3.27885 12.0031 3.28136H11.9633C9.62659 3.29074 7.43987 4.2048 5.80393 5.85714C4.16565 7.50949 3.27268 9.70324 3.28206 12.04C3.28909 13.4532 3.64065 14.8571 4.30159 16.097L4.40706 16.2939V19.5939H7.70706L7.90393 19.6993C9.14377 20.3603 10.5477 20.7118 11.961 20.7189H12.0008C14.3211 20.7189 16.5008 19.8235 18.1438 18.197C19.7938 16.561 20.7102 14.3743 20.7242 12.04C20.7289 10.854 20.5016 9.70558 20.0469 8.62277C19.6097 7.57975 18.9727 6.63229 18.1719 5.83371ZM7.31331 13.1251C7.01891 13.1191 6.73861 12.9979 6.53253 12.7876C6.32646 12.5773 6.21104 12.2946 6.21104 12.0001C6.21104 11.7057 6.32646 11.4229 6.53253 11.2126C6.73861 11.0023 7.01891 10.8811 7.31331 10.8751C7.6077 10.8811 7.88801 11.0023 8.09408 11.2126C8.30015 11.4229 8.41558 11.7057 8.41558 12.0001C8.41558 12.2946 8.30015 12.5773 8.09408 12.7876C7.88801 12.9979 7.6077 13.1191 7.31331 13.1251ZM12.0008 13.1251C11.7064 13.1191 11.4261 12.9979 11.22 12.7876C11.014 12.5773 10.8985 12.2946 10.8985 12.0001C10.8985 11.7057 11.014 11.4229 11.22 11.2126C11.4261 11.0023 11.7064 10.8811 12.0008 10.8751C12.2952 10.8811 12.5755 11.0023 12.7816 11.2126C12.9877 11.4229 13.1031 11.7057 13.1031 12.0001C13.1031 12.2946 12.9877 12.5773 12.7816 12.7876C12.5755 12.9979 12.2952 13.1191 12.0008 13.1251ZM16.6883 13.1251C16.3939 13.1191 16.1136 12.9979 15.9075 12.7876C15.7015 12.5773 15.586 12.2946 15.586 12.0001C15.586 11.7057 15.7015 11.4229 15.9075 11.2126C16.1136 11.0023 16.3939 10.8811 16.6883 10.8751C16.9827 10.8811 17.263 11.0023 17.4691 11.2126C17.6752 11.4229 17.7906 11.7057 17.7906 12.0001C17.7906 12.2946 17.6752 12.5773 17.4691 12.7876C17.263 12.9979 16.9827 13.1191 16.6883 13.1251Z" fill="#E6F7FF" />
         <path d="M15.5625 12C15.5625 12.2984 15.681 12.5845 15.892 12.7955C16.103 13.0065 16.3891 13.125 16.6875 13.125C16.9859 13.125 17.272 13.0065 17.483 12.7955C17.694 12.5845 17.8125 12.2984 17.8125 12C17.8125 11.7016 17.694 11.4155 17.483 11.2045C17.272 10.9935 16.9859 10.875 16.6875 10.875C16.3891 10.875 16.103 10.9935 15.892 11.2045C15.681 11.4155 15.5625 11.7016 15.5625 12ZM6.1875 12C6.1875 12.2984 6.30603 12.5845 6.517 12.7955C6.72798 13.0065 7.01413 13.125 7.3125 13.125C7.61087 13.125 7.89702 13.0065 8.108 12.7955C8.31897 12.5845 8.4375 12.2984 8.4375 12C8.4375 11.7016 8.31897 11.4155 8.108 11.2045C7.89702 10.9935 7.61087 10.875 7.3125 10.875C7.01413 10.875 6.72798 10.9935 6.517 11.2045C6.30603 11.4155 6.1875 11.7016 6.1875 12Z" fill="#1890FF" />
         <path d="M21.6846 7.93125C21.1549 6.67266 20.3955 5.54297 19.4275 4.57266C18.4663 3.60796 17.3253 2.84114 16.0689 2.31563C14.7799 1.77422 13.4111 1.5 12.0002 1.5H11.9533C10.533 1.50703 9.15723 1.78828 7.86348 2.34141C6.61791 2.87232 5.48753 3.64049 4.53535 4.60312C3.57676 5.57109 2.82441 6.69609 2.3041 7.95C1.76504 9.24844 1.49316 10.6289 1.50019 12.0492C1.50815 13.6769 1.89322 15.2806 2.62519 16.7344V20.2969C2.62519 20.5828 2.73878 20.857 2.94097 21.0592C3.14316 21.2614 3.41738 21.375 3.70332 21.375H7.26816C8.72198 22.107 10.3257 22.492 11.9533 22.5H12.0025C13.4064 22.5 14.7682 22.2281 16.0502 21.6961C17.3002 21.1768 18.437 20.419 19.3971 19.4648C20.365 18.5063 21.1268 17.3859 21.6588 16.1367C22.2119 14.843 22.4932 13.4672 22.5002 12.0469C22.5072 10.6195 22.2307 9.23438 21.6846 7.93125ZM18.1432 18.1969C16.5002 19.8234 14.3205 20.7188 12.0002 20.7188H11.9604C10.5471 20.7117 9.14316 20.3602 7.90332 19.6992L7.70644 19.5938H4.40644V16.2938L4.30098 16.0969C3.64004 14.857 3.28848 13.4531 3.28144 12.0398C3.27207 9.70312 4.16504 7.50937 5.80332 5.85703C7.43926 4.20469 9.62598 3.29062 11.9627 3.28125H12.0025C13.1744 3.28125 14.3111 3.50859 15.3822 3.95859C16.4275 4.39687 17.365 5.02734 18.1713 5.83359C18.9752 6.6375 19.608 7.57734 20.0463 8.62266C20.501 9.70547 20.7283 10.8539 20.7236 12.0398C20.7096 14.3742 19.7932 16.5609 18.1432 18.1969Z" fill="#1890FF" />
         <path d="M10.875 12C10.875 12.2984 10.9935 12.5845 11.2045 12.7955C11.4155 13.0065 11.7016 13.125 12 13.125C12.2984 13.125 12.5845 13.0065 12.7955 12.7955C13.0065 12.5845 13.125 12.2984 13.125 12C13.125 11.7016 13.0065 11.4155 12.7955 11.2045C12.5845 10.9935 12.2984 10.875 12 10.875C11.7016 10.875 11.4155 10.9935 11.2045 11.2045C10.9935 11.4155 10.875 11.7016 10.875 12Z" fill="#1890FF" />
      </g>
   </symbol>
   <symbol id="marketplace" viewBox="0 0 24 24">
      <g>
         <path d="M19.6758 8.0625H4.32422C4.31719 8.0625 4.3125 8.06719 4.3125 8.07422V10.2117C4.3125 11.6133 5.46094 12.75 6.87422 12.75C7.82812 12.75 8.66016 12.2344 9.10312 11.468C9.17109 11.3484 9.3 11.2734 9.43828 11.2734C9.57656 11.2734 9.70312 11.3484 9.77344 11.468C10.2141 12.2344 11.0461 12.75 12 12.75C12.9563 12.75 13.7906 12.232 14.2289 11.4633C14.2969 11.3461 14.4211 11.2734 14.5547 11.2734H14.5687C14.7047 11.2734 14.8266 11.3461 14.8945 11.4633C15.3352 12.232 16.1695 12.75 17.1258 12.75C18.5391 12.75 19.6875 11.6133 19.6875 10.2117V8.07422C19.6875 8.06719 19.6828 8.0625 19.6758 8.0625Z" fill="#E6F7FF" />
         <path d="M20.6723 6.37734V3.375C20.6723 2.96016 20.3371 2.625 19.9223 2.625H4.07851C3.66366 2.625 3.32851 2.96016 3.32851 3.375V6.37734C2.9371 6.40078 2.62538 6.72656 2.62538 7.125V10.2117C2.62388 10.779 2.73875 11.3406 2.96288 11.8617C3.06366 12.1008 3.18788 12.3258 3.32851 12.5391V20.625C3.32851 21.0375 3.66366 21.375 4.07851 21.375H19.9223C20.3371 21.375 20.6723 21.0398 20.6723 20.625V12.5391C20.8151 12.3252 20.9375 12.0985 21.0379 11.8617C21.2605 11.3391 21.3754 10.7836 21.3754 10.2117V7.125C21.3754 6.72656 21.0637 6.40078 20.6723 6.37734ZM5.01601 4.3125H18.9848V6.375H5.01601V4.3125ZM13.5004 19.6898H10.5004V17.25H13.5004V19.6898ZM18.9941 19.6898H15.0004V16.5C15.0004 16.0852 14.6652 15.75 14.2504 15.75H9.75038C9.33554 15.75 9.00038 16.0852 9.00038 16.5V19.6898H5.01601V14.0133C5.08397 14.0461 5.15429 14.0789 5.22694 14.107C5.7496 14.3273 6.30507 14.4375 6.87694 14.4375C7.44882 14.4375 8.00194 14.3273 8.52694 14.107C8.85038 13.9711 9.15507 13.7977 9.43397 13.5891C9.43866 13.5867 9.44335 13.5867 9.44804 13.5891C9.72781 13.7985 10.0325 13.9725 10.3551 14.107C10.8777 14.3273 11.4332 14.4375 12.0051 14.4375C12.5769 14.4375 13.1301 14.3273 13.6551 14.107C13.9785 13.9711 14.2832 13.7977 14.5621 13.5891C14.5668 13.5867 14.5715 13.5867 14.5762 13.5891C14.8559 13.7985 15.1606 13.9725 15.4832 14.107C16.0058 14.3273 16.5613 14.4375 17.1332 14.4375C17.7051 14.4375 18.2582 14.3273 18.7832 14.107C18.8535 14.0766 18.9238 14.0461 18.9941 14.0133V19.6898ZM19.6879 10.2117C19.6879 11.6133 18.5394 12.75 17.1262 12.75C16.1699 12.75 15.3355 12.232 14.8949 11.4633C14.8269 11.3461 14.7051 11.2734 14.5691 11.2734H14.5551C14.4215 11.2734 14.2973 11.3461 14.2293 11.4633C14.0044 11.8554 13.6798 12.1811 13.2883 12.4071C12.8968 12.6331 12.4524 12.7514 12.0004 12.75C11.0465 12.75 10.2144 12.2344 9.77382 11.468C9.70351 11.3484 9.57694 11.2734 9.43866 11.2734C9.30038 11.2734 9.17147 11.3484 9.10351 11.468C8.87734 11.8586 8.55224 12.1828 8.16096 12.4079C7.76967 12.6329 7.326 12.7509 6.8746 12.75C5.46132 12.75 4.31288 11.6133 4.31288 10.2117V8.07422C4.31288 8.06719 4.31757 8.0625 4.3246 8.0625H19.6762C19.6832 8.0625 19.6879 8.06719 19.6879 8.07422V10.2117Z" fill="#1890FF" />
      </g>
   </symbol>
   <symbol id="product" viewBox="0 0 24 24">
      <g>
         <path d="M7.5 11.25C7.5 12.4008 7.94766 13.4836 8.76328 14.2992C9.57656 15.1148 10.6617 15.5625 11.8125 15.5625H12.1875C13.3383 15.5625 14.4211 15.1148 15.2367 14.2992C16.0523 13.4859 16.5 12.4008 16.5 11.25V4.3125H7.5V11.25ZM4.3125 8.25C4.3125 9.21094 4.94297 10.0266 5.8125 10.3031C4.94297 10.0242 4.3125 9.20859 4.3125 8.25ZM12.8438 17.2148C15.5859 16.9172 17.775 14.7703 18.1359 12.0469C17.7727 14.7703 15.5859 16.9148 12.8438 17.2148ZM5.86406 12.0469C6.225 14.7703 8.41406 16.9172 11.1562 17.2148C8.41406 16.9148 6.22734 14.7703 5.86406 12.0469Z" fill="#E6F7FF" />
         <path d="M20.3438 3.75H18.1875V2.8125C18.1875 2.70937 18.1031 2.625 18 2.625H6C5.89687 2.625 5.8125 2.70937 5.8125 2.8125V3.75H3.65625C3.38275 3.75 3.12044 3.85865 2.92705 4.05205C2.73365 4.24544 2.625 4.50775 2.625 4.78125V8.25C2.625 10.1648 4.03125 11.7563 5.86406 12.0469C6.22734 14.7703 8.41406 16.9148 11.1562 17.2148V19.6805H6.5625C6.14766 19.6805 5.8125 20.0156 5.8125 20.4305V21.1875C5.8125 21.2906 5.89687 21.375 6 21.375H18C18.1031 21.375 18.1875 21.2906 18.1875 21.1875V20.4305C18.1875 20.0156 17.8523 19.6805 17.4375 19.6805H12.8438V17.2148C15.5859 16.9148 17.7727 14.7703 18.1359 12.0469C19.9688 11.7563 21.375 10.1648 21.375 8.25V4.78125C21.375 4.50775 21.2663 4.24544 21.073 4.05205C20.8796 3.85865 20.6173 3.75 20.3438 3.75ZM5.8125 10.3031C5.37714 10.1641 4.99723 9.89025 4.72762 9.52122C4.45801 9.15219 4.31264 8.70703 4.3125 8.25V5.4375H5.8125V10.3031ZM16.5 11.25C16.5 12.4008 16.0523 13.4859 15.2367 14.2992C14.4211 15.1148 13.3383 15.5625 12.1875 15.5625H11.8125C10.6617 15.5625 9.57656 15.1148 8.76328 14.2992C7.94766 13.4836 7.5 12.4008 7.5 11.25V4.3125H16.5V11.25ZM19.6875 8.25C19.6875 9.21094 19.057 10.0266 18.1875 10.3031V5.4375H19.6875V8.25Z" fill="#1890FF" />
      </g>
   </symbol>
   <symbol id="pages" viewBox="0 0 24 24">
      <g>
         <path d="M4.3125 5.4375H12.9375V13.3125H4.3125V5.4375Z" fill="#E6F7FF"/>
         <path d="M14.625 14.8125C14.625 14.9156 14.5406 15 14.4375 15H11.8125V16.7109H19.6875V8.83594H14.625V14.8125Z" fill="#E6F7FF"/>
         <path d="M20.625 7.14844H14.625V4.5C14.625 4.08516 14.2898 3.75 13.875 3.75H4.3125V2.8125C4.3125 2.70937 4.22812 2.625 4.125 2.625H2.8125C2.70937 2.625 2.625 2.70937 2.625 2.8125V21.1875C2.625 21.2906 2.70937 21.375 2.8125 21.375H4.125C4.22812 21.375 4.3125 21.2906 4.3125 21.1875V15H10.125V17.6484C10.125 18.0633 10.4602 18.3984 10.875 18.3984H20.625C21.0398 18.3984 21.375 18.0633 21.375 17.6484V7.89844C21.375 7.48359 21.0398 7.14844 20.625 7.14844ZM4.3125 13.3125V5.4375H12.9375V13.3125H4.3125ZM19.6875 16.7109H11.8125V15H14.4375C14.5406 15 14.625 14.9156 14.625 14.8125V8.83594H19.6875V16.7109Z" fill="#1890FF"/>
      </g>
   </symbol>
   <symbol id="groups" viewBox="0 0 24 24">
      <g>
         <path d="M16.3125 14.8125H19.3125V19.3125H16.3125V14.8125ZM4.6875 14.8125H7.6875V19.3125H4.6875V14.8125Z" fill="#E6F7FF" />
         <path d="M12 3C7.02891 3 3 7.02891 3 12V20.4375C3 20.7492 3.25078 21 3.5625 21H7.875C8.70234 21 9.375 20.3273 9.375 19.5V14.625C9.375 13.7977 8.70234 13.125 7.875 13.125H4.6875V12C4.6875 7.96172 7.96172 4.6875 12 4.6875C16.0383 4.6875 19.3125 7.96172 19.3125 12V13.125H16.125C15.2977 13.125 14.625 13.7977 14.625 14.625V19.5C14.625 20.3273 15.2977 21 16.125 21H20.4375C20.7492 21 21 20.7492 21 20.4375V12C21 7.02891 16.9711 3 12 3ZM7.6875 14.8125V19.3125H4.6875V14.8125H7.6875ZM19.3125 19.3125H16.3125V14.8125H19.3125V19.3125Z" fill="#1890FF" />
      </g>
   </symbol>
   <symbol id="events" viewBox="0 0 24 24">
      <g>
         <path d="M16.3125 14.8125H19.3125V19.3125H16.3125V14.8125ZM4.6875 14.8125H7.6875V19.3125H4.6875V14.8125Z" fill="#E6F7FF" />
         <path d="M12 3C7.02891 3 3 7.02891 3 12V20.4375C3 20.7492 3.25078 21 3.5625 21H7.875C8.70234 21 9.375 20.3273 9.375 19.5V14.625C9.375 13.7977 8.70234 13.125 7.875 13.125H4.6875V12C4.6875 7.96172 7.96172 4.6875 12 4.6875C16.0383 4.6875 19.3125 7.96172 19.3125 12V13.125H16.125C15.2977 13.125 14.625 13.7977 14.625 14.625V19.5C14.625 20.3273 15.2977 21 16.125 21H20.4375C20.7492 21 21 20.7492 21 20.4375V12C21 7.02891 16.9711 3 12 3ZM7.6875 14.8125V19.3125H4.6875V14.8125H7.6875ZM19.3125 19.3125H16.3125V14.8125H19.3125V19.3125Z" fill="#1890FF" />
      </g>
   </symbol>
   <symbol id="games" viewBox="0 0 24 24">
      <g>
         <path d="M16.3125 14.8125H19.3125V19.3125H16.3125V14.8125ZM4.6875 14.8125H7.6875V19.3125H4.6875V14.8125Z" fill="#E6F7FF" />
         <path d="M12 3C7.02891 3 3 7.02891 3 12V20.4375C3 20.7492 3.25078 21 3.5625 21H7.875C8.70234 21 9.375 20.3273 9.375 19.5V14.625C9.375 13.7977 8.70234 13.125 7.875 13.125H4.6875V12C4.6875 7.96172 7.96172 4.6875 12 4.6875C16.0383 4.6875 19.3125 7.96172 19.3125 12V13.125H16.125C15.2977 13.125 14.625 13.7977 14.625 14.625V19.5C14.625 20.3273 15.2977 21 16.125 21H20.4375C20.7492 21 21 20.7492 21 20.4375V12C21 7.02891 16.9711 3 12 3ZM7.6875 14.8125V19.3125H4.6875V14.8125H7.6875ZM19.3125 19.3125H16.3125V14.8125H19.3125V19.3125Z" fill="#1890FF" />
      </g>
   </symbol>
   <symbol id="see" viewBox="0 0 16 16">
      <g>
         <path d="M13.1308 4.6875H2.8683C2.56049 4.6875 2.38862 5.0125 2.57924 5.23437L7.71049 11.1844C7.85736 11.3547 8.14018 11.3547 8.28861 11.1844L13.4199 5.23437C13.6105 5.0125 13.4386 4.6875 13.1308 4.6875Z" fill="#BFBFBF"/>
      </g>
   </symbol>
</svg>
